<svg width="10" height="11" viewBox="0 0 10 11" fill="none" xmlns="http://www.w3.org/2000/svg">
<path d="M5.41917 8.47562C5.4751 8.53135 5.51947 8.59756 5.54975 8.67047C5.58003 8.74337 5.59562 8.82154 5.59562 8.90048C5.59562 8.97942 5.58003 9.05758 5.54975 9.13049C5.51947 9.2034 5.4751 9.26961 5.41917 9.32533L5.12221 9.62223C4.55951 10.1848 3.79631 10.5009 3.00052 10.5009C2.20474 10.5009 1.44154 10.1848 0.878833 9.62223C0.316126 9.05963 0 8.29659 0 7.50096C0 6.70533 0.316126 5.94229 0.878833 5.3797L2.08466 4.17461C2.62532 3.63272 3.35276 3.31802 4.11797 3.29498C4.88318 3.27193 5.62825 3.54228 6.20056 4.05066C6.25964 4.10317 6.30781 4.1668 6.3423 4.23792C6.37679 4.30904 6.39693 4.38625 6.40157 4.46516C6.40621 4.54406 6.39526 4.6231 6.36935 4.69778C6.34344 4.77245 6.30307 4.84129 6.25055 4.90036C6.19803 4.95944 6.13438 5.00759 6.06325 5.04207C5.99211 5.07655 5.91488 5.09669 5.83597 5.10133C5.75705 5.10597 5.67799 5.09503 5.6033 5.06912C5.52861 5.04322 5.45976 5.00285 5.40067 4.95034C5.05748 4.64561 4.61081 4.4835 4.15201 4.49715C3.69322 4.51081 3.25698 4.69921 2.93253 5.02382L1.72771 6.2274C1.39014 6.56491 1.20049 7.02266 1.20049 7.49996C1.20049 7.97727 1.39014 8.43502 1.72771 8.77252C2.06528 9.11003 2.52313 9.29963 3.00052 9.29963C3.47792 9.29963 3.93577 9.11003 4.27334 8.77252L4.57029 8.47562C4.62601 8.41986 4.69217 8.37562 4.765 8.34543C4.83783 8.31525 4.9159 8.29971 4.99473 8.29971C5.07357 8.29971 5.15164 8.31525 5.22446 8.34543C5.29729 8.37562 5.36345 8.41986 5.41917 8.47562ZM9.12263 1.37808C8.55946 0.81635 7.79644 0.500885 7.00094 0.500885C6.20544 0.500885 5.44242 0.81635 4.87925 1.37808L4.58229 1.67498C4.46959 1.78766 4.40628 1.94048 4.40628 2.09983C4.40628 2.25918 4.46959 2.41201 4.58229 2.52468C4.69499 2.63736 4.84785 2.70066 5.00723 2.70066C5.16661 2.70066 5.31947 2.63736 5.43217 2.52468L5.72913 2.22779C6.0667 1.89028 6.52454 1.70067 7.00194 1.70067C7.47934 1.70067 7.93718 1.89028 8.27475 2.22779C8.61233 2.56529 8.80197 3.02304 8.80197 3.50035C8.80197 3.97765 8.61233 4.4354 8.27475 4.77291L7.06943 5.97849C6.7447 6.30296 6.30822 6.49109 5.84931 6.50437C5.3904 6.51766 4.94376 6.3551 4.60079 6.04996C4.5417 5.99745 4.47285 5.95709 4.39816 5.93119C4.32348 5.90528 4.24442 5.89433 4.1655 5.89898C4.08658 5.90362 4.00935 5.92375 3.93821 5.95824C3.86708 5.99272 3.80344 6.04087 3.75091 6.09995C3.69839 6.15902 3.65802 6.22786 3.63211 6.30253C3.6062 6.3772 3.59525 6.45625 3.5999 6.53515C3.60454 6.61405 3.62468 6.69127 3.65917 6.76239C3.69366 6.83351 3.74182 6.89714 3.80091 6.94965C4.37281 7.45791 5.11738 7.72843 5.88223 7.70585C6.64708 7.68328 7.37439 7.36931 7.91531 6.8282L9.12113 5.62311C9.68363 5.0602 9.99972 4.29712 10 3.50141C10.0003 2.7057 9.68473 1.94239 9.12263 1.37908V1.37808Z" fill="#262626"/>
</svg>
