<svg width="10" height="11" viewBox="0 0 10 11" fill="none" xmlns="http://www.w3.org/2000/svg">
<path id="icon-linkedin" d="M9.07407 0.5H0.925926C0.680355 0.5 0.444842 0.597553 0.271197 0.771197C0.0975526 0.944842 0 1.18036 0 1.42593V9.57407C0 9.81964 0.0975526 10.0552 0.271197 10.2288C0.444842 10.4024 0.680355 10.5 0.925926 10.5H9.07407C9.31964 10.5 9.55516 10.4024 9.7288 10.2288C9.90245 10.0552 10 9.81964 10 9.57407V1.42593C10 1.18036 9.90245 0.944842 9.7288 0.771197C9.55516 0.597553 9.31964 0.5 9.07407 0.5ZM8.88889 9.38889H1.11111V1.61111H8.88889V9.38889ZM4.25926 7.72222V5.31481C4.25937 5.19936 4.29544 5.08681 4.36247 4.9928C4.4295 4.8988 4.52415 4.82801 4.63326 4.79028C4.74238 4.75255 4.86054 4.74976 4.97132 4.78228C5.08209 4.8148 5.17999 4.88103 5.25139 4.97176C5.53357 4.82385 5.84913 4.75125 6.16757 4.76096C6.48602 4.77068 6.79657 4.86238 7.06921 5.02721C7.34185 5.19204 7.56735 5.42442 7.72392 5.70189C7.88048 5.97935 7.96282 6.29252 7.96296 6.61111V7.72222C7.96296 7.86956 7.90443 8.01087 7.80024 8.11506C7.69606 8.21925 7.55475 8.27778 7.40741 8.27778C7.26006 8.27778 7.11876 8.21925 7.01457 8.11506C6.91038 8.01087 6.85185 7.86956 6.85185 7.72222V6.61111C6.85185 6.41465 6.77381 6.22624 6.63489 6.08733C6.49598 5.94841 6.30757 5.87037 6.11111 5.87037C5.91465 5.87037 5.72624 5.94841 5.58733 6.08733C5.44841 6.22624 5.37037 6.41465 5.37037 6.61111V7.72222C5.37037 7.86956 5.31184 8.01087 5.20765 8.11506C5.10346 8.21925 4.96216 8.27778 4.81481 8.27778C4.66747 8.27778 4.52616 8.21925 4.42198 8.11506C4.31779 8.01087 4.25926 7.86956 4.25926 7.72222ZM3.51852 5.31481V7.72222C3.51852 7.86956 3.45999 8.01087 3.3558 8.11506C3.25161 8.21925 3.11031 8.27778 2.96296 8.27778C2.81562 8.27778 2.67431 8.21925 2.57013 8.11506C2.46594 8.01087 2.40741 7.86956 2.40741 7.72222V5.31481C2.40741 5.16747 2.46594 5.02616 2.57013 4.92198C2.67431 4.81779 2.81562 4.75926 2.96296 4.75926C3.11031 4.75926 3.25161 4.81779 3.3558 4.92198C3.45999 5.02616 3.51852 5.16747 3.51852 5.31481ZM2.22222 3.27778C2.22222 3.13127 2.26567 2.98806 2.34706 2.86624C2.42845 2.74443 2.54414 2.64949 2.67949 2.59342C2.81485 2.53736 2.96378 2.52269 3.10747 2.55127C3.25116 2.57985 3.38315 2.6504 3.48675 2.75399C3.59034 2.85759 3.66089 2.98958 3.68947 3.13327C3.71805 3.27696 3.70338 3.42589 3.64732 3.56125C3.59125 3.6966 3.49631 3.81229 3.3745 3.89368C3.25268 3.97507 3.10947 4.01852 2.96296 4.01852C2.76651 4.01852 2.5781 3.94048 2.43918 3.80156C2.30026 3.66264 2.22222 3.47423 2.22222 3.27778Z" fill="#F4F4F4"/>
</svg>
