<svg width="9" height="11" viewBox="0 0 9 11" fill="none" xmlns="http://www.w3.org/2000/svg">
<path d="M4.5 2.27677C4.07434 2.27677 3.65824 2.39912 3.30432 2.62836C2.95039 2.85759 2.67454 3.18342 2.51165 3.56463C2.34876 3.94583 2.30614 4.3653 2.38918 4.76999C2.47222 5.17468 2.6772 5.54641 2.97818 5.83817C3.27917 6.12994 3.66265 6.32863 4.08013 6.40913C4.49761 6.48962 4.93034 6.44831 5.3236 6.29041C5.71686 6.13251 6.05298 5.86511 6.28947 5.52203C6.52595 5.17895 6.65217 4.7756 6.65217 4.36299C6.65153 3.80988 6.42457 3.27961 6.0211 2.8885C5.61763 2.49739 5.07059 2.27739 4.5 2.27677ZM4.5 5.31127C4.30652 5.31127 4.11738 5.25566 3.95651 5.15146C3.79563 5.04726 3.67025 4.89916 3.5962 4.72588C3.52216 4.55261 3.50279 4.36194 3.54054 4.17799C3.57828 3.99404 3.67145 3.82507 3.80827 3.69245C3.94508 3.55983 4.11939 3.46952 4.30915 3.43293C4.49891 3.39634 4.69561 3.41512 4.87436 3.48689C5.05312 3.55866 5.2059 3.68021 5.31339 3.83615C5.42089 3.9921 5.47826 4.17544 5.47826 4.36299C5.47826 4.61449 5.37519 4.85569 5.19173 5.03353C5.00828 5.21136 4.75945 5.31127 4.5 5.31127ZM4.5 0.00088501C3.30692 0.00214005 2.16308 0.462121 1.31945 1.2799C0.475816 2.09768 0.00129471 3.20647 0 4.36299C0 8.03095 3.99326 10.7829 4.16348 10.8981C4.26212 10.965 4.3796 11.0009 4.5 11.0009C4.6204 11.0009 4.73788 10.965 4.83652 10.8981C5.59285 10.3578 6.28482 9.73757 6.89967 9.04893C8.27364 7.51935 9 5.89779 9 4.36299C8.99871 3.20647 8.52418 2.09768 7.68055 1.2799C6.83692 0.462121 5.69308 0.00214005 4.5 0.00088501ZM6.03098 8.28462C5.56461 8.8039 5.05234 9.28271 4.5 9.71557C3.94766 9.28271 3.43539 8.8039 2.96902 8.28462C2.15217 7.36763 1.17391 5.94236 1.17391 4.36299C1.17391 3.50789 1.52434 2.68781 2.1481 2.08316C2.77186 1.47851 3.61787 1.13883 4.5 1.13883C5.38213 1.13883 6.22814 1.47851 6.8519 2.08316C7.47566 2.68781 7.82609 3.50789 7.82609 4.36299C7.82609 5.94236 6.84783 7.36763 6.03098 8.28462Z" fill="#262626"/>
</svg>
