<svg width="12" height="14" viewBox="0 0 12 14" fill="none" xmlns="http://www.w3.org/2000/svg">
<path id="icon-book" d="M10 0.75H1.875C1.12125 0.75 0 1.24938 0 2.625V11.375C0 12.7506 1.12125 13.25 1.875 13.25H11.25V12H1.8825C1.59375 11.9925 1.25 11.8781 1.25 11.375C1.25 11.3119 1.25563 11.2556 1.265 11.2044C1.335 10.845 1.62938 10.7563 1.88188 10.75H10.625C10.6362 10.75 10.6444 10.7444 10.6556 10.7437H11.25V2C11.25 1.31063 10.6894 0.75 10 0.75ZM10 9.5H1.25V2.625C1.25 2.12125 1.59375 2.0075 1.875 2H6.25V6.375L7.5 5.75L8.75 6.375V2H10V9.5Z" fill="#F4F4F4"/>
</svg>
