<svg width="10" height="11" viewBox="0 0 10 11" fill="none" xmlns="http://www.w3.org/2000/svg">
<path d="M9.66454 2.96384C9.76908 2.59793 9.79788 2.21516 9.74924 1.83814C9.7006 1.46111 9.57551 1.09749 9.38136 0.768753C9.3335 0.687329 9.26466 0.619712 9.18176 0.572694C9.09886 0.525676 9.00482 0.500914 8.90909 0.500896C8.47254 0.499689 8.04135 0.595435 7.64779 0.780972C7.25423 0.96651 6.90846 1.23704 6.63636 1.57232H5.72727C5.45517 1.23704 5.10941 0.96651 4.71585 0.780972C4.32228 0.595435 3.8911 0.499689 3.45455 0.500896C3.35882 0.500914 3.26478 0.525676 3.18188 0.572694C3.09898 0.619712 3.03014 0.687329 2.98227 0.768753C2.78812 1.09749 2.66303 1.46111 2.6144 1.83814C2.56576 2.21516 2.59456 2.59793 2.69909 2.96384C2.48168 3.35942 2.36649 3.80137 2.36364 4.25089V4.60803C2.36449 5.20761 2.5698 5.78963 2.94681 6.26121C3.32382 6.73279 3.85079 7.06676 4.44364 7.20982C4.27172 7.50506 4.18146 7.83935 4.18182 8.17946V8.35803H3.45455C3.21344 8.35803 2.98221 8.26396 2.81172 8.09652C2.64123 7.92908 2.54545 7.70197 2.54545 7.46517C2.54485 6.9444 2.33395 6.44511 1.959 6.07687C1.58406 5.70862 1.0757 5.50148 0.545455 5.50089C0.400791 5.50089 0.262052 5.55733 0.15976 5.6578C0.0574674 5.75826 0 5.89452 0 6.0366C0 6.17868 0.0574674 6.31495 0.15976 6.41541C0.262052 6.51588 0.400791 6.57232 0.545455 6.57232C0.78656 6.57232 1.01779 6.66639 1.18828 6.83383C1.35877 7.00127 1.45455 7.22837 1.45455 7.46517C1.45515 7.98595 1.66605 8.48523 2.041 8.85348C2.41594 9.22173 2.9243 9.42887 3.45455 9.42946H4.18182V9.96517C4.18182 10.1073 4.23929 10.2435 4.34158 10.344C4.44387 10.4444 4.58261 10.5009 4.72727 10.5009C4.87194 10.5009 5.01067 10.4444 5.11297 10.344C5.21526 10.2435 5.27273 10.1073 5.27273 9.96517V8.17946C5.27273 7.94266 5.36851 7.71556 5.53899 7.54811C5.70948 7.38067 5.94071 7.2866 6.18182 7.2866C6.42292 7.2866 6.65416 7.38067 6.82464 7.54811C6.99513 7.71556 7.09091 7.94266 7.09091 8.17946V9.96517C7.09091 10.1073 7.14838 10.2435 7.25067 10.344C7.35296 10.4444 7.4917 10.5009 7.63636 10.5009C7.78103 10.5009 7.91977 10.4444 8.02206 10.344C8.12435 10.2435 8.18182 10.1073 8.18182 9.96517V8.17946C8.18218 7.83935 8.09192 7.50506 7.92 7.20982C8.51285 7.06676 9.03982 6.73279 9.41683 6.26121C9.79383 5.78963 9.99914 5.20761 10 4.60803V4.25089C9.99715 3.80137 9.88196 3.35942 9.66454 2.96384ZM8.90909 4.60803C8.90909 5.03427 8.73669 5.44306 8.42981 5.74445C8.12293 6.04585 7.70672 6.21518 7.27273 6.21518H5.09091C4.65692 6.21518 4.2407 6.04585 3.93383 5.74445C3.62695 5.44306 3.45455 5.03427 3.45455 4.60803V4.25089C3.45921 3.93165 3.55581 3.62024 3.73318 3.35268C3.78972 3.28079 3.8261 3.1956 3.8387 3.10561C3.8513 3.01561 3.83968 2.92395 3.805 2.83973C3.64853 2.44263 3.64208 2.00361 3.78682 1.60223C4.03177 1.64656 4.2648 1.73999 4.47134 1.87672C4.67789 2.01344 4.85352 2.19051 4.98727 2.39688C5.03659 2.47253 5.10448 2.53479 5.1847 2.57793C5.26492 2.62107 5.3549 2.6437 5.44636 2.64375H6.91682C7.00836 2.64378 7.09843 2.62118 7.17874 2.57804C7.25905 2.53489 7.32701 2.47259 7.37636 2.39688C7.51006 2.19046 7.68567 2.01335 7.89222 1.87662C8.09878 1.73989 8.33184 1.64648 8.57682 1.60223C8.72155 2.00361 8.7151 2.44263 8.55864 2.83973C8.52536 2.92458 8.51461 3.01635 8.52742 3.1064C8.54022 3.19645 8.57615 3.28182 8.63182 3.35446C8.80843 3.62163 8.90454 3.93239 8.90909 4.25089V4.60803Z" fill="#262626"/>
</svg>
