<svg width="10" height="11" viewBox="0 0 10 11" fill="none" xmlns="http://www.w3.org/2000/svg">
<path id="icon-link" d="M5.41917 8.47474C5.4751 8.53046 5.51947 8.59668 5.54975 8.66958C5.58003 8.74249 5.59562 8.82065 5.59562 8.89959C5.59562 8.97853 5.58003 9.0567 5.54975 9.12961C5.51947 9.20251 5.4751 9.26872 5.41917 9.32445L5.12221 9.62134C4.55951 10.1839 3.79631 10.5 3.00052 10.5C2.20474 10.5 1.44154 10.1839 0.878833 9.62134C0.316126 9.05875 0 8.29571 0 7.50008C0 6.70445 0.316126 5.94141 0.878833 5.37881L2.08466 4.17373C2.62532 3.63184 3.35276 3.31714 4.11797 3.29409C4.88318 3.27105 5.62825 3.5414 6.20056 4.04977C6.25964 4.10228 6.30781 4.16591 6.3423 4.23703C6.37679 4.30815 6.39693 4.38537 6.40157 4.46427C6.40621 4.54317 6.39526 4.62222 6.36935 4.69689C6.34344 4.77156 6.30307 4.8404 6.25055 4.89948C6.19803 4.95855 6.13438 5.0067 6.06325 5.04119C5.99212 5.07567 5.91488 5.09581 5.83597 5.10045C5.75705 5.10509 5.67799 5.09414 5.6033 5.06824C5.52861 5.04233 5.45976 5.00197 5.40067 4.94946C5.05748 4.64473 4.61081 4.48261 4.15201 4.49627C3.69322 4.50993 3.25698 4.69833 2.93253 5.02293L1.72771 6.22652C1.39014 6.56402 1.20049 7.02177 1.20049 7.49908C1.20049 7.97638 1.39014 8.43413 1.72771 8.77164C2.06528 9.10914 2.52313 9.29875 3.00052 9.29875C3.47792 9.29875 3.93577 9.10914 4.27334 8.77164L4.57029 8.47474C4.62601 8.41897 4.69217 8.37473 4.765 8.34455C4.83783 8.31436 4.91589 8.29883 4.99473 8.29883C5.07357 8.29883 5.15164 8.31436 5.22446 8.34455C5.29729 8.37473 5.36345 8.41897 5.41917 8.47474ZM9.12263 1.37719C8.55946 0.815465 7.79644 0.5 7.00094 0.5C6.20544 0.5 5.44242 0.815465 4.87925 1.37719L4.58229 1.67409C4.46959 1.78677 4.40628 1.93959 4.40628 2.09895C4.40628 2.2583 4.46959 2.41112 4.58229 2.5238C4.69499 2.63648 4.84785 2.69978 5.00723 2.69978C5.16661 2.69978 5.31947 2.63648 5.43217 2.5238L5.72913 2.2269C6.0667 1.8894 6.52454 1.69979 7.00194 1.69979C7.47934 1.69979 7.93718 1.8894 8.27475 2.2269C8.61233 2.5644 8.80197 3.02216 8.80197 3.49946C8.80197 3.97676 8.61233 4.43452 8.27475 4.77202L7.06943 5.9776C6.7447 6.30207 6.30822 6.4902 5.84931 6.50349C5.3904 6.51678 4.94376 6.35422 4.60079 6.04908C4.5417 5.99657 4.47285 5.95621 4.39816 5.9303C4.32348 5.90439 4.24442 5.89345 4.1655 5.89809C4.08658 5.90273 4.00935 5.92287 3.93821 5.95735C3.86708 5.99183 3.80344 6.03999 3.75091 6.09906C3.69839 6.15814 3.65802 6.22697 3.63211 6.30165C3.6062 6.37632 3.59525 6.45536 3.5999 6.53427C3.60454 6.61317 3.62468 6.69038 3.65917 6.76151C3.69366 6.83263 3.74182 6.89626 3.80091 6.94877C4.37281 7.45703 5.11738 7.72755 5.88223 7.70497C6.64708 7.68239 7.37439 7.36842 7.91531 6.82731L9.12113 5.62223C9.68363 5.05931 9.99972 4.29623 10 3.50052C10.0003 2.70481 9.68473 1.94151 9.12263 1.37819V1.37719Z" fill="#F4F4F4"/>
</svg>
