<svg width="10" height="9" viewBox="0 0 10 9" fill="none" xmlns="http://www.w3.org/2000/svg">
<path d="M9.51613 7.61197H9.03226V3.61183C9.03226 3.41537 8.94729 3.22695 8.79605 3.08803C8.64481 2.94911 8.43969 2.87107 8.22581 2.87107H6.77419V1.24138C6.77414 1.11686 6.73992 0.994355 6.67469 0.885195C6.60945 0.776036 6.51531 0.683744 6.40097 0.616849C6.28663 0.549955 6.15577 0.510617 6.02049 0.502472C5.88522 0.494326 5.74989 0.517637 5.62702 0.570248L1.43347 2.36809C1.29448 2.4279 1.17688 2.52279 1.09442 2.6417C1.01195 2.7606 0.968013 2.89861 0.967742 3.03959V7.61197H0.483871C0.35554 7.61197 0.232466 7.65879 0.141723 7.74215C0.0509791 7.8255 0 7.93855 0 8.05643C0 8.1743 0.0509791 8.28735 0.141723 8.37071C0.232466 8.45406 0.35554 8.50089 0.483871 8.50089H9.51613C9.64446 8.50089 9.76753 8.45406 9.85828 8.37071C9.94902 8.28735 10 8.1743 10 8.05643C10 7.93855 9.94902 7.8255 9.85828 7.74215C9.76753 7.65879 9.64446 7.61197 9.51613 7.61197ZM8.06452 3.75998V7.61197H6.77419V3.75998H8.06452ZM1.93548 3.13367L5.80645 1.47472V7.61197H1.93548V3.13367ZM5.16129 4.20444V4.6489C5.16129 4.76678 5.11031 4.87983 5.01957 4.96318C4.92882 5.04654 4.80575 5.09336 4.67742 5.09336C4.54909 5.09336 4.42601 5.04654 4.33527 4.96318C4.24453 4.87983 4.19355 4.76678 4.19355 4.6489V4.20444C4.19355 4.08657 4.24453 3.97352 4.33527 3.89016C4.42601 3.80681 4.54909 3.75998 4.67742 3.75998C4.80575 3.75998 4.92882 3.80681 5.01957 3.89016C5.11031 3.97352 5.16129 4.08657 5.16129 4.20444ZM3.54839 4.20444V4.6489C3.54839 4.76678 3.49741 4.87983 3.40666 4.96318C3.31592 5.04654 3.19285 5.09336 3.06452 5.09336C2.93619 5.09336 2.81311 5.04654 2.72237 4.96318C2.63162 4.87983 2.58065 4.76678 2.58065 4.6489V4.20444C2.58065 4.08657 2.63162 3.97352 2.72237 3.89016C2.81311 3.80681 2.93619 3.75998 3.06452 3.75998C3.19285 3.75998 3.31592 3.80681 3.40666 3.89016C3.49741 3.97352 3.54839 4.08657 3.54839 4.20444ZM3.54839 6.13044V6.57489C3.54839 6.69277 3.49741 6.80582 3.40666 6.88917C3.31592 6.97253 3.19285 7.01935 3.06452 7.01935C2.93619 7.01935 2.81311 6.97253 2.72237 6.88917C2.63162 6.80582 2.58065 6.69277 2.58065 6.57489V6.13044C2.58065 6.01256 2.63162 5.89951 2.72237 5.81616C2.81311 5.7328 2.93619 5.68598 3.06452 5.68598C3.19285 5.68598 3.31592 5.7328 3.40666 5.81616C3.49741 5.89951 3.54839 6.01256 3.54839 6.13044ZM5.16129 6.13044V6.57489C5.16129 6.69277 5.11031 6.80582 5.01957 6.88917C4.92882 6.97253 4.80575 7.01935 4.67742 7.01935C4.54909 7.01935 4.42601 6.97253 4.33527 6.88917C4.24453 6.80582 4.19355 6.69277 4.19355 6.57489V6.13044C4.19355 6.01256 4.24453 5.89951 4.33527 5.81616C4.42601 5.7328 4.54909 5.68598 4.67742 5.68598C4.80575 5.68598 4.92882 5.7328 5.01957 5.81616C5.11031 5.89951 5.16129 6.01256 5.16129 6.13044Z" fill="#262626"/>
</svg>
