<svg width="41" height="41" viewBox="0 0 41 41" fill="none" xmlns="http://www.w3.org/2000/svg">
<path d="M31.5841 20.5005C31.5841 17.54 30.4081 14.7007 28.3146 12.6072C26.2212 10.5138 23.3819 9.33775 20.4213 9.33775C17.4608 9.33775 14.6215 10.5138 12.5281 12.6072C10.4346 14.7007 9.25854 17.54 9.25854 20.5005C9.25854 23.4611 10.4346 26.3004 12.5281 28.3938C14.6215 30.4873 17.4608 31.6633 20.4213 31.6633C23.3819 31.6633 26.2212 30.4873 28.3146 28.3938C30.4081 26.3004 31.5841 23.4611 31.5841 20.5005Z" fill="#FFEE58"/>
<path fill-rule="evenodd" clip-rule="evenodd" d="M20.4214 40.5005C20.7915 40.5005 21.1464 40.3535 21.408 40.0918C21.6697 39.8301 21.8167 39.4752 21.8167 39.1051V37.2447C21.8167 36.8746 21.6697 36.5197 21.408 36.258C21.1464 35.9963 20.7915 35.8493 20.4214 35.8493C20.0513 35.8493 19.6964 35.9963 19.4347 36.258C19.173 36.5197 19.026 36.8746 19.026 37.2447V39.1051C19.026 39.4752 19.173 39.8301 19.4347 40.0918C19.6964 40.3535 20.0513 40.5005 20.4214 40.5005ZM6.27999 34.6419C6.54162 34.9032 6.89627 35.05 7.26604 35.05C7.63581 35.05 7.99046 34.9032 8.25208 34.6419L8.98325 33.9126C9.23755 33.6495 9.37836 33.2971 9.37535 32.9313C9.37235 32.5654 9.22577 32.2154 8.96718 31.9565C8.70859 31.6977 8.35869 31.5508 7.99283 31.5474C7.62697 31.5441 7.27444 31.6846 7.01115 31.9386L6.27999 32.6698C6.01869 32.9314 5.87192 33.2861 5.87192 33.6558C5.87192 34.0256 6.01869 34.3803 6.27999 34.6419ZM34.5628 34.6419C34.8241 34.3803 34.9709 34.0256 34.9709 33.6558C34.9709 33.2861 34.8241 32.9314 34.5628 32.6698L33.8316 31.9386C33.5671 31.6922 33.2173 31.558 32.8558 31.5643C32.4943 31.5707 32.1494 31.7172 31.8937 31.9728C31.6381 32.2285 31.4916 32.5734 31.4852 32.9349C31.4789 33.2964 31.6131 33.6462 31.8595 33.9107L32.5907 34.6419C32.8523 34.9032 33.207 35.05 33.5767 35.05C33.9465 35.05 34.3012 34.9032 34.5628 34.6419ZM0.421387 20.5005C0.421387 20.8706 0.568396 21.2255 0.830075 21.4871C1.09175 21.7488 1.44667 21.8958 1.81674 21.8958H3.6772C4.04727 21.8958 4.40218 21.7488 4.66386 21.4871C4.92554 21.2255 5.07255 20.8706 5.07255 20.5005C5.07255 20.1304 4.92554 19.7755 4.66386 19.5138C4.40218 19.2521 4.04727 19.1051 3.6772 19.1051H1.81674C1.44667 19.1051 1.09175 19.2521 0.830075 19.5138C0.568396 19.7755 0.421387 20.1304 0.421387 20.5005ZM35.7702 20.5005C35.7702 20.8706 35.9172 21.2255 36.1789 21.4871C36.4406 21.7488 36.7955 21.8958 37.1656 21.8958H39.026C39.3961 21.8958 39.751 21.7488 40.0127 21.4871C40.2744 21.2255 40.4214 20.8706 40.4214 20.5005C40.4214 20.1304 40.2744 19.7755 40.0127 19.5138C39.751 19.2521 39.3961 19.1051 39.026 19.1051H37.1656C36.7955 19.1051 36.4406 19.2521 36.1789 19.5138C35.9172 19.7755 35.7702 20.1304 35.7702 20.5005ZM31.8595 9.06235C32.1212 9.32365 32.4758 9.47042 32.8456 9.47042C33.2153 9.47042 33.57 9.32365 33.8316 9.06235L34.5628 8.33118C34.6999 8.20344 34.8098 8.04939 34.8861 7.87823C34.9624 7.70707 35.0034 7.5223 35.0067 7.33495C35.01 7.14759 34.9755 6.96149 34.9053 6.78775C34.8352 6.614 34.7307 6.45617 34.5982 6.32367C34.4657 6.19117 34.3079 6.08672 34.1341 6.01654C33.9604 5.94636 33.7743 5.91189 33.5869 5.9152C33.3996 5.91851 33.2148 5.95952 33.0436 6.03578C32.8725 6.11204 32.7184 6.222 32.5907 6.35909L31.8595 7.09025C31.5982 7.35188 31.4515 7.70653 31.4515 8.0763C31.4515 8.44607 31.5982 8.80072 31.8595 9.06235ZM8.98325 9.06235C9.24455 8.80072 9.39132 8.44607 9.39132 8.0763C9.39132 7.70653 9.24455 7.35188 8.98325 7.09025L8.25208 6.35909C8.12434 6.222 7.97029 6.11204 7.79913 6.03578C7.62797 5.95952 7.4432 5.91851 7.25585 5.9152C7.06849 5.91189 6.88239 5.94636 6.70865 6.01654C6.5349 6.08672 6.37707 6.19117 6.24457 6.32367C6.11207 6.45617 6.00762 6.614 5.93744 6.78775C5.86726 6.96149 5.83279 7.14759 5.8361 7.33495C5.83941 7.5223 5.88041 7.70707 5.95668 7.87823C6.03294 8.04939 6.1429 8.20344 6.27999 8.33118L7.00929 9.06235C7.13888 9.19201 7.29274 9.29487 7.46209 9.36505C7.63144 9.43523 7.81296 9.47135 7.99627 9.47135C8.17959 9.47135 8.3611 9.43523 8.53045 9.36505C8.6998 9.29487 8.85367 9.19201 8.98325 9.06235ZM20.4214 5.15165C20.7915 5.15165 21.1464 5.00464 21.408 4.74296C21.6697 4.48128 21.8167 4.12637 21.8167 3.7563V1.89584C21.8167 1.52577 21.6697 1.17085 21.408 0.909174C21.1464 0.647496 20.7915 0.500487 20.4214 0.500487C20.0513 0.500487 19.6964 0.647496 19.4347 0.909174C19.173 1.17085 19.026 1.52577 19.026 1.89584V3.7563C19.026 4.12637 19.173 4.48128 19.4347 4.74296C19.6964 5.00464 20.0513 5.15165 20.4214 5.15165Z" fill="#FFEE58"/>
</svg>
