<svg width="10" height="11" viewBox="0 0 10 11" fill="none" xmlns="http://www.w3.org/2000/svg">
<path id="icon-github" d="M9.66455 2.96295C9.76908 2.59705 9.79788 2.21428 9.74924 1.83725C9.7006 1.46023 9.57551 1.09661 9.38136 0.767868C9.3335 0.686444 9.26466 0.618827 9.18176 0.571809C9.09886 0.524791 9.00482 0.500029 8.90909 0.500011C8.47254 0.498804 8.04136 0.59455 7.64779 0.780087C7.25423 0.965625 6.90846 1.23615 6.63636 1.57144H5.72727C5.45517 1.23615 5.10941 0.965625 4.71585 0.780087C4.32228 0.59455 3.8911 0.498804 3.45455 0.500011C3.35882 0.500029 3.26478 0.524791 3.18188 0.571809C3.09898 0.618827 3.03014 0.686444 2.98227 0.767868C2.78812 1.09661 2.66303 1.46023 2.6144 1.83725C2.56576 2.21428 2.59456 2.59705 2.69909 2.96295C2.48168 3.35853 2.36649 3.80049 2.36364 4.25001V4.60715C2.36449 5.20673 2.5698 5.78874 2.94681 6.26032C3.32382 6.7319 3.85079 7.06587 4.44364 7.20893C4.27172 7.50417 4.18146 7.83846 4.18182 8.17857V8.35715H3.45455C3.21344 8.35715 2.98221 8.26308 2.81172 8.09563C2.64123 7.92819 2.54545 7.70109 2.54545 7.46429C2.54485 6.94351 2.33395 6.44423 1.959 6.07598C1.58406 5.70774 1.0757 5.5006 0.545455 5.50001C0.400791 5.50001 0.262053 5.55645 0.15976 5.65691C0.0574674 5.75738 0 5.89364 0 6.03572C0 6.1778 0.0574674 6.31406 0.15976 6.41453C0.262053 6.51499 0.400791 6.57143 0.545455 6.57143C0.78656 6.57143 1.01779 6.6655 1.18828 6.83294C1.35877 7.00039 1.45455 7.22749 1.45455 7.46429C1.45515 7.98507 1.66605 8.48435 2.041 8.8526C2.41594 9.22084 2.9243 9.42798 3.45455 9.42857H4.18182V9.96429C4.18182 10.1064 4.23929 10.2426 4.34158 10.3431C4.44387 10.4436 4.58261 10.5 4.72727 10.5C4.87194 10.5 5.01067 10.4436 5.11297 10.3431C5.21526 10.2426 5.27273 10.1064 5.27273 9.96429V8.17857C5.27273 7.94177 5.36851 7.71467 5.53899 7.54723C5.70948 7.37979 5.94071 7.28572 6.18182 7.28572C6.42292 7.28572 6.65416 7.37979 6.82464 7.54723C6.99513 7.71467 7.09091 7.94177 7.09091 8.17857V9.96429C7.09091 10.1064 7.14838 10.2426 7.25067 10.3431C7.35296 10.4436 7.4917 10.5 7.63636 10.5C7.78103 10.5 7.91977 10.4436 8.02206 10.3431C8.12435 10.2426 8.18182 10.1064 8.18182 9.96429V8.17857C8.18218 7.83846 8.09192 7.50417 7.92 7.20893C8.51285 7.06587 9.03982 6.7319 9.41683 6.26032C9.79383 5.78874 9.99914 5.20673 10 4.60715V4.25001C9.99715 3.80049 9.88196 3.35853 9.66455 2.96295ZM8.90909 4.60715C8.90909 5.03339 8.73669 5.44217 8.42981 5.74357C8.12293 6.04497 7.70672 6.21429 7.27273 6.21429H5.09091C4.65692 6.21429 4.2407 6.04497 3.93383 5.74357C3.62695 5.44217 3.45455 5.03339 3.45455 4.60715V4.25001C3.45921 3.93077 3.55581 3.61935 3.73318 3.35179C3.78972 3.2799 3.8261 3.19472 3.8387 3.10472C3.8513 3.01473 3.83968 2.92306 3.805 2.83885C3.64853 2.44174 3.64208 2.00272 3.78682 1.60135C4.03177 1.64567 4.2648 1.73911 4.47134 1.87583C4.67789 2.01255 4.85352 2.18963 4.98727 2.39599C5.03659 2.47164 5.10448 2.5339 5.1847 2.57704C5.26492 2.62018 5.3549 2.64282 5.44636 2.64287H6.91682C7.00836 2.64289 7.09843 2.62029 7.17874 2.57715C7.25905 2.53401 7.32701 2.47171 7.37636 2.39599C7.51006 2.18957 7.68567 2.01246 7.89222 1.87573C8.09878 1.739 8.33184 1.64559 8.57682 1.60135C8.72155 2.00272 8.7151 2.44174 8.55864 2.83885C8.52536 2.92369 8.51461 3.01546 8.52742 3.10551C8.54022 3.19556 8.57615 3.28093 8.63182 3.35358C8.80842 3.62075 8.90454 3.9315 8.90909 4.25001V4.60715Z" fill="#F4F4F4"/>
</svg>
