<svg width="12" height="14" viewBox="0 0 12 14" fill="none" xmlns="http://www.w3.org/2000/svg">
<path d="M10 0.750885H1.875C1.12125 0.750885 0 1.25026 0 2.62589V11.3759C0 12.7515 1.12125 13.2509 1.875 13.2509H11.25V12.0009H1.8825C1.59375 11.9934 1.25 11.879 1.25 11.3759C1.25 11.3128 1.25563 11.2565 1.265 11.2053C1.335 10.8459 1.62938 10.7571 1.88188 10.7509H10.625C10.6362 10.7509 10.6444 10.7453 10.6556 10.7446H11.25V2.00089C11.25 1.31151 10.6894 0.750885 10 0.750885ZM10 9.50089H1.25V2.62589C1.25 2.12214 1.59375 2.00839 1.875 2.00089H6.25V6.37589L7.5 5.75089L8.75 6.37589V2.00089H10V9.50089Z" fill="#262626"/>
</svg>
