<svg width="10" height="11" viewBox="0 0 10 11" fill="none" xmlns="http://www.w3.org/2000/svg">
<path d="M9.07407 0.500885H0.925926C0.680355 0.500885 0.444842 0.598438 0.271197 0.772082C0.0975526 0.945727 0 1.18124 0 1.42681V9.57496C0 9.82053 0.0975526 10.056 0.271197 10.2297C0.444842 10.4033 0.680355 10.5009 0.925926 10.5009H9.07407C9.31964 10.5009 9.55516 10.4033 9.7288 10.2297C9.90245 10.056 10 9.82053 10 9.57496V1.42681C10 1.18124 9.90245 0.945727 9.7288 0.772082C9.55516 0.598438 9.31964 0.500885 9.07407 0.500885ZM8.88889 9.38977H1.11111V1.612H8.88889V9.38977ZM4.25926 7.72311V5.3157C4.25937 5.20025 4.29544 5.08769 4.36247 4.99369C4.4295 4.89968 4.52415 4.8289 4.63326 4.79117C4.74238 4.75344 4.86054 4.75064 4.97132 4.78316C5.08209 4.81569 5.17999 4.88192 5.25139 4.97264C5.53357 4.82474 5.84913 4.75213 6.16757 4.76185C6.48602 4.77156 6.79657 4.86326 7.06921 5.0281C7.34185 5.19293 7.56735 5.42531 7.72392 5.70277C7.88048 5.98024 7.96282 6.2934 7.96296 6.612V7.72311C7.96296 7.87045 7.90443 8.01176 7.80024 8.11594C7.69606 8.22013 7.55475 8.27866 7.40741 8.27866C7.26006 8.27866 7.11876 8.22013 7.01457 8.11594C6.91038 8.01176 6.85185 7.87045 6.85185 7.72311V6.612C6.85185 6.41554 6.77381 6.22713 6.63489 6.08821C6.49598 5.9493 6.30757 5.87126 6.11111 5.87126C5.91465 5.87126 5.72624 5.9493 5.58733 6.08821C5.44841 6.22713 5.37037 6.41554 5.37037 6.612V7.72311C5.37037 7.87045 5.31184 8.01176 5.20765 8.11594C5.10346 8.22013 4.96216 8.27866 4.81481 8.27866C4.66747 8.27866 4.52616 8.22013 4.42198 8.11594C4.31779 8.01176 4.25926 7.87045 4.25926 7.72311ZM3.51852 5.3157V7.72311C3.51852 7.87045 3.45999 8.01176 3.3558 8.11594C3.25161 8.22013 3.11031 8.27866 2.96296 8.27866C2.81562 8.27866 2.67431 8.22013 2.57013 8.11594C2.46594 8.01176 2.40741 7.87045 2.40741 7.72311V5.3157C2.40741 5.16836 2.46594 5.02705 2.57013 4.92286C2.67431 4.81868 2.81562 4.76014 2.96296 4.76014C3.11031 4.76014 3.25161 4.81868 3.3558 4.92286C3.45999 5.02705 3.51852 5.16836 3.51852 5.3157ZM2.22222 3.27866C2.22222 3.13216 2.26567 2.98894 2.34706 2.86713C2.42845 2.74532 2.54414 2.65037 2.67949 2.59431C2.81485 2.53824 2.96378 2.52357 3.10747 2.55216C3.25116 2.58074 3.38315 2.65129 3.48675 2.75488C3.59034 2.85847 3.66089 2.99046 3.68947 3.13415C3.71805 3.27784 3.70338 3.42678 3.64732 3.56213C3.59125 3.69748 3.49631 3.81317 3.3745 3.89457C3.25268 3.97596 3.10947 4.0194 2.96296 4.0194C2.76651 4.0194 2.5781 3.94136 2.43918 3.80245C2.30026 3.66353 2.22222 3.47512 2.22222 3.27866Z" fill="#262626"/>
</svg>
