<svg width="10" height="9" viewBox="0 0 10 9" fill="none" xmlns="http://www.w3.org/2000/svg">
<path id="icon-company" d="M9.51613 7.61108H9.03226V3.61095C9.03226 3.41448 8.94729 3.22607 8.79605 3.08715C8.64481 2.94823 8.43969 2.87018 8.22581 2.87018H6.77419V1.2405C6.77414 1.11597 6.73992 0.99347 6.67469 0.88431C6.60945 0.775151 6.51531 0.682859 6.40097 0.615964C6.28663 0.54907 6.15577 0.509732 6.02049 0.501587C5.88522 0.493441 5.74989 0.516752 5.62702 0.569363L1.43347 2.3672C1.29448 2.42701 1.17688 2.52191 1.09442 2.64081C1.01195 2.75972 0.968013 2.89772 0.967742 3.03871V7.61108H0.483871C0.35554 7.61108 0.232466 7.65791 0.141723 7.74126C0.0509791 7.82461 0 7.93766 0 8.05554C0 8.17342 0.0509791 8.28647 0.141723 8.36982C0.232466 8.45317 0.35554 8.5 0.483871 8.5H9.51613C9.64446 8.5 9.76753 8.45317 9.85828 8.36982C9.94902 8.28647 10 8.17342 10 8.05554C10 7.93766 9.94902 7.82461 9.85828 7.74126C9.76753 7.65791 9.64446 7.61108 9.51613 7.61108ZM8.06452 3.7591V7.61108H6.77419V3.7591H8.06452ZM1.93548 3.13278L5.80645 1.47384V7.61108H1.93548V3.13278ZM5.16129 4.20356V4.64802C5.16129 4.7659 5.11031 4.87895 5.01957 4.9623C4.92882 5.04565 4.80575 5.09248 4.67742 5.09248C4.54909 5.09248 4.42601 5.04565 4.33527 4.9623C4.24453 4.87895 4.19355 4.7659 4.19355 4.64802V4.20356C4.19355 4.08568 4.24453 3.97263 4.33527 3.88928C4.42601 3.80593 4.54909 3.7591 4.67742 3.7591C4.80575 3.7591 4.92882 3.80593 5.01957 3.88928C5.11031 3.97263 5.16129 4.08568 5.16129 4.20356ZM3.54839 4.20356V4.64802C3.54839 4.7659 3.49741 4.87895 3.40666 4.9623C3.31592 5.04565 3.19285 5.09248 3.06452 5.09248C2.93619 5.09248 2.81311 5.04565 2.72237 4.9623C2.63162 4.87895 2.58065 4.7659 2.58065 4.64802V4.20356C2.58065 4.08568 2.63162 3.97263 2.72237 3.88928C2.81311 3.80593 2.93619 3.7591 3.06452 3.7591C3.19285 3.7591 3.31592 3.80593 3.40666 3.88928C3.49741 3.97263 3.54839 4.08568 3.54839 4.20356ZM3.54839 6.12955V6.57401C3.54839 6.69189 3.49741 6.80494 3.40666 6.88829C3.31592 6.97164 3.19285 7.01847 3.06452 7.01847C2.93619 7.01847 2.81311 6.97164 2.72237 6.88829C2.63162 6.80494 2.58065 6.69189 2.58065 6.57401V6.12955C2.58065 6.01167 2.63162 5.89862 2.72237 5.81527C2.81311 5.73192 2.93619 5.68509 3.06452 5.68509C3.19285 5.68509 3.31592 5.73192 3.40666 5.81527C3.49741 5.89862 3.54839 6.01167 3.54839 6.12955ZM5.16129 6.12955V6.57401C5.16129 6.69189 5.11031 6.80494 5.01957 6.88829C4.92882 6.97164 4.80575 7.01847 4.67742 7.01847C4.54909 7.01847 4.42601 6.97164 4.33527 6.88829C4.24453 6.80494 4.19355 6.69189 4.19355 6.57401V6.12955C4.19355 6.01167 4.24453 5.89862 4.33527 5.81527C4.42601 5.73192 4.54909 5.68509 4.67742 5.68509C4.80575 5.68509 4.92882 5.73192 5.01957 5.81527C5.11031 5.89862 5.16129 6.01167 5.16129 6.12955Z" fill="#F4F4F4"/>
</svg>
