<svg width="28" height="28" viewBox="0 0 28 28" fill="none" xmlns="http://www.w3.org/2000/svg">
<path d="M27.0865 24.4649L21.1502 18.5261C22.9301 16.2067 23.7611 13.2971 23.4746 10.3875C23.1881 7.47797 21.8056 4.78632 19.6075 2.85859C17.4095 0.930866 14.5604 -0.0885798 11.6383 0.00705272C8.71628 0.102685 5.93999 1.30624 3.87267 3.37356C1.80535 5.44088 0.6018 8.21716 0.506168 11.1392C0.410535 14.0613 1.42998 16.9103 3.35771 19.1084C5.28543 21.3065 7.97708 22.689 10.8866 22.9755C13.7962 23.262 16.7058 22.431 19.0252 20.6511L24.9665 26.5936C25.106 26.7331 25.2716 26.8438 25.4539 26.9193C25.6363 26.9948 25.8316 27.0337 26.029 27.0337C26.2263 27.0337 26.4217 26.9948 26.604 26.9193C26.7863 26.8438 26.9519 26.7331 27.0915 26.5936C27.231 26.4541 27.3417 26.2884 27.4172 26.1061C27.4927 25.9238 27.5316 25.7284 27.5316 25.5311C27.5316 25.3338 27.4927 25.1384 27.4172 24.9561C27.3417 24.7738 27.231 24.6081 27.0915 24.4686L27.0865 24.4649ZM3.52522 11.5261C3.52522 9.84496 4.02374 8.20158 4.95773 6.80376C5.89172 5.40594 7.21924 4.31647 8.77241 3.67313C10.3256 3.02978 12.0346 2.86146 13.6835 3.18943C15.3323 3.5174 16.8469 4.32695 18.0356 5.5157C19.2244 6.70444 20.0339 8.219 20.3619 9.86784C20.6899 11.5167 20.5215 13.2257 19.8782 14.7789C19.2348 16.3321 18.1454 17.6596 16.7476 18.5936C15.3497 19.5276 13.7064 20.0261 12.0252 20.0261C9.77159 20.0238 7.61093 19.1275 6.01737 17.534C4.42381 15.9404 3.52754 13.7797 3.52522 11.5261Z" fill="#4A4A4A" fill-opacity="0.7"/>
</svg>
