<svg width="35" height="37" viewBox="0 0 35 37" fill="none" xmlns="http://www.w3.org/2000/svg">
<path d="M18.0284 0.733887C14.8121 0.734478 11.6564 1.60813 8.8977 3.26164C6.13904 4.91516 3.88097 7.28652 2.36437 10.1228C0.847765 12.959 0.12952 16.1537 0.286247 19.3662C0.442974 22.5786 1.46879 25.6883 3.25428 28.3634C5.03977 31.0385 7.51795 33.1788 10.4245 34.556C13.331 35.9331 16.5568 36.4954 19.7579 36.1829C22.9589 35.8704 26.0151 34.6948 28.6004 32.7816C31.1857 30.8683 33.2032 28.2892 34.4376 25.3192C35.0434 23.8624 33.5919 22.3984 32.1315 22.9918C29.6285 24.0057 26.8493 24.1103 24.2772 23.2875C21.705 22.4647 19.5026 20.7664 18.0528 18.488C16.603 16.2096 15.9976 13.4952 16.3417 10.8167C16.6859 8.13814 17.9579 5.66493 19.9365 3.82704L20.0733 3.68491C21.0523 2.56562 20.2741 0.7481 18.7266 0.7481H18.254L18.1332 0.73744L18.0266 0.733887H18.0284Z" fill="#50F573"/>
</svg>
